<svg xmlns="http://www.w3.org/2000/svg">
  <symbol id="add-icon" viewBox="0 0 15 14">
    <path d="M6.24854 8H1.24854C0.965202 8 0.727702 7.90417 0.536035 7.7125C0.344368 7.52083 0.248535 7.28333 0.248535 7C0.248535 6.71667 0.344368 6.47917 0.536035 6.2875C0.727702 6.09583 0.965202 6 1.24854 6H6.24854V1C6.24854 0.716667 6.34437 0.479167 6.53604 0.2875C6.7277 0.0958333 6.9652 0 7.24854 0C7.53187 0 7.76937 0.0958333 7.96104 0.2875C8.1527 0.479167 8.24854 0.716667 8.24854 1V6H13.2485C13.5319 6 13.7694 6.09583 13.961 6.2875C14.1527 6.47917 14.2485 6.71667 14.2485 7C14.2485 7.28333 14.1527 7.52083 13.961 7.7125C13.7694 7.90417 13.5319 8 13.2485 8H8.24854V13C8.24854 13.2833 8.1527 13.5208 7.96104 13.7125C7.76937 13.9042 7.53187 14 7.24854 14C6.9652 14 6.7277 13.9042 6.53604 13.7125C6.34437 13.5208 6.24854 13.2833 6.24854 13V8Z" fill="#2A3647"/>
  </symbol>

  <symbol id="arrow-icon" viewBox="0 0 8 5">
    <path d="M3.29998 4.3L0.699975 1.7C0.383309 1.38333 0.312475 1.02083 0.487475 0.6125C0.662475 0.204167 0.974975 0 1.42498 0H6.57498C7.02498 0 7.33747 0.204167 7.51248 0.6125C7.68748 1.02083 7.61664 1.38333 7.29997 1.7L4.69998 4.3C4.59998 4.4 4.49164 4.475 4.37498 4.525C4.25831 4.575 4.13331 4.6 3.99998 4.6C3.86664 4.6 3.74164 4.575 3.62498 4.525C3.50831 4.475 3.39998 4.4 3.29998 4.3Z" fill="#2A3647"/>
  </symbol>

  <symbol id="lowprio-icon" viewBox="0 0 21 16">
    <path d="M10.2485 9.50589C10.0139 9.5063 9.7854 9.43145 9.59655 9.29238L0.693448 2.72264C0.57761 2.63708 0.47977 2.52957 0.405515 2.40623C0.33126 2.28289 0.282043 2.14614 0.260675 2.00379C0.217521 1.71631 0.290421 1.42347 0.463337 1.1897C0.636253 0.955928 0.895022 0.800371 1.18272 0.757248C1.47041 0.714126 1.76347 0.786972 1.99741 0.95976L10.2485 7.04224L18.4997 0.95976C18.6155 0.874204 18.7471 0.812285 18.8869 0.777538C19.0266 0.742791 19.1719 0.735896 19.3144 0.757248C19.4568 0.7786 19.5937 0.82778 19.7171 0.901981C19.8405 0.976181 19.9481 1.07395 20.0337 1.1897C20.1194 1.30545 20.1813 1.43692 20.2161 1.57661C20.2509 1.71629 20.2578 1.86145 20.2364 2.00379C20.2150 2.14614 20.1658 2.28289 20.0916 2.40623C20.0173 2.52957 19.9195 2.63708 19.8036 2.72264L10.9005 9.29238C10.7117 9.43145 10.4831 9.5063 10.2485 9.50589Z"/>
    <path d="M10.2485 15.2544C10.0139 15.2548 9.7854 15.18 9.59655 15.0409L0.693448 8.47117C0.459502 8.29839 0.30383 8.03981 0.260675 7.75233C0.217521 7.46485 0.290421 7.17201 0.463337 6.93824C0.636253 6.70446 0.895021 6.54891 1.18272 6.50578C1.47041 6.46266 1.76347 6.53551 1.99741 6.7083L10.2485 12.7908L18.4997 6.7083C18.7336 6.53551 19.0267 6.46266 19.3144 6.50578C19.6020 6.54891 19.8608 6.70446 20.0337 6.93824C20.2066 7.17201 20.2795 7.46485 20.2364 7.75233C20.1932 8.03981 20.0376 8.29839 19.8036 8.47117L10.9005 15.0409C10.7117 15.18 10.4831 15.2548 10.2485 15.2544Z"/>
  </symbol>

  <symbol id="mediumprio-icon" viewBox="0 0 21 8">
    <path d="M19.1526 7.72528H1.34443C1.05378 7.72528 0.775033 7.60898 0.569514 7.40197C0.363995 7.19495 0.248535 6.91419 0.248535 6.62143C0.248535 6.32867 0.363995 6.0479 0.569514 5.84089C0.775033 5.63388 1.05378 5.51758 1.34443 5.51758H19.1526C19.4433 5.51758 19.722 5.63388 19.9276 5.84089C20.1331 6.0479 20.2485 6.32867 20.2485 6.62143C20.2485 6.91419 20.1331 7.19495 19.9276 7.40197C19.722 7.60898 19.4433 7.72528 19.1526 7.72528Z"/>
    <path d="M19.1526 2.48211H1.34443C1.05378 2.48211 0.775033 2.36581 0.569514 2.1588C0.363995 1.95179 0.248535 1.67102 0.248535 1.37826C0.248535 1.0855 0.363995 0.804736 0.569514 0.597724C0.775033 0.390712 1.05378 0.274414 1.34443 0.274414H19.1526 0.274414C19.4433 0.274414 19.722 0.390712 19.9276 0.597724C20.1331 0.804736 20.2485 1.0855 20.2485 1.37826C20.2485 1.67102 20.1331 1.95179 19.9276 2.1588C19.722 2.36581 19.4433 2.48211 19.1526 2.48211Z"/>
  </symbol>

  <symbol id="urgentprio-icon" viewBox="0 0 21 16">
    <g clip-path="url(#clip0_101429_5525)">
    <path d="M19.6528 15.2547C19.4182 15.2551 19.1896 15.1803 19.0007 15.0412L10.7487 8.958L2.49663 15.0412C2.38078 15.1267 2.24919 15.1887 2.10939 15.2234C1.96959 15.2582 1.82431 15.2651 1.68184 15.2437C1.53937 15.2223 1.40251 15.1732 1.27906 15.099C1.15562 15.0247 1.04801 14.927 0.96238 14.8112C0.876751 14.6954 0.814779 14.5639 0.780002 14.4243C0.745226 14.2846 0.738325 14.1394 0.759696 13.997C0.802855 13.7095 0.958545 13.4509 1.19252 13.2781L10.0966 6.70761C10.2853 6.56802 10.5139 6.49268 10.7487 6.49268C10.9835 6.49268 11.212 6.56802 11.4007 6.70761L20.3048 13.2781C20.4908 13.415 20.6286 13.6071 20.6988 13.827C20.7689 14.0469 20.7678 14.2833 20.6955 14.5025C20.6232 14.7216 20.4834 14.9124 20.2962 15.0475C20.1089 15.1826 19.8837 15.2551 19.6528 15.2547Z"/>
    <path d="M19.6528 9.50568C19.4182 9.50609 19.1896 9.43124 19.0007 9.29214L10.7487 3.20898L2.49663 9.29214C2.26266 9.46495 1.96957 9.5378 1.68184 9.49468C1.39412 9.45155 1.13532 9.29597 0.962385 9.06218C0.789449 8.82838 0.716541 8.53551 0.7597 8.24799C0.802859 7.96048 0.95855 7.70187 1.19252 7.52906L10.0966 0.958588C10.2853 0.818997 10.5139 0.743652 10.7487 0.743652C10.9835 0.743652 11.212 0.818997 11.4007 0.958588L20.3048 7.52906C20.4908 7.66598 20.6286 7.85809 20.6988 8.07797C20.769 8.29785 20.7678 8.53426 20.6955 8.75344C20.6232 8.97262 20.4834 9.16338 20.2962 9.29847C20.1089 9.43356 19.8837 9.50608 19.6528 9.50568Z"/>
    </g>
    <defs>
    <clipPath id="clip0_101429_5525">
    <rect width="20" height="14.5098" fill="white" transform="translate(0.748535 0.745117)"/>
    </clipPath>
    </defs>
  </symbol>

  <symbol id="star-icon" viewBox="0 0 16 16">
    <path d="M8 0a1 1 0 0 1 1 1v5.268l4.562-2.634a1 1 0 1 1 1 1.732L10 8l4.562 2.634a1 1 0 1 1-1 1.732L9 9.732V15a1 1 0 1 1-2 0V9.732l-4.562 2.634a1 1 0 1 1-1-1.732L6 8 1.438 5.366a1 1 0 0 1 1-1.732L7 6.268V1a1 1 0 0 1 1-1z"/>
  </symbol>

  <symbol id="x-icon" viewBox="0 0 16 16">
      <path d="M2.146 2.854a.5.5 0 1 1 .708-.708L8 7.293l5.146-5.147a.5.5 0 0 1 .708.708L8.707 8l5.147 5.146a.5.5 0 0 1-.708.708L8 8.707l-5.146 5.147a.5.5 0 0 1-.708-.708L7.293 8 2.146 2.854Z"/>
  </symbol>

  <symbol id="check-icon" viewBox="0 0 16 12">
    <path d="M5.79923 9.15L14.2742 0.675C14.4742 0.475 14.7117 0.375 14.9867 0.375C15.2617 0.375 15.4992 0.475 15.6992 0.675C15.8992 0.875 15.9992 1.1125 15.9992 1.3875C15.9992 1.6625 15.8992 1.9 15.6992 2.1L6.49923 11.3C6.29923 11.5 6.0659 11.6 5.79923 11.6C5.53256 11.6 5.29923 11.5 5.09923 11.3L0.79923 7C0.59923 6.8 0.503397 6.5625 0.51173 6.2875C0.520064 6.0125 0.62423 5.775 0.82423 5.575C1.02423 5.375 1.26173 5.275 1.53673 5.275C1.81173 5.275 2.04923 5.375 2.24923 5.575L5.79923 9.15Z" fill="white"/>
  </symbol>

  <symbol id="check-icon-blue" viewBox="0 0 16 12">
    <path d="M5.79923 9.15L14.2742 0.675C14.4742 0.475 14.7117 0.375 14.9867 0.375C15.2617 0.375 15.4992 0.475 15.6992 0.675C15.8992 0.875 15.9992 1.1125 15.9992 1.3875C15.9992 1.6625 15.8992 1.9 15.6992 2.1L6.49923 11.3C6.29923 11.5 6.0659 11.6 5.79923 11.6C5.53256 11.6 5.29923 11.5 5.09923 11.3L0.79923 7C0.59923 6.8 0.503397 6.5625 0.51173 6.2875C0.520064 6.0125 0.62423 5.775 0.82423 5.575C1.02423 5.375 1.26173 5.275 1.53673 5.275C1.81173 5.275 2.04923 5.375 2.24923 5.575L5.79923 9.15Z" fill="#2A3647"/>
  </symbol>

  <symbol id="square-icon" viewBox="0 0 24 24">
    <rect x="4" y="4" width="16" height="16" rx="3" stroke="#2A3647" stroke-width="2"/>
  </symbol>

  <symbol id="checked-icon" viewBox="0 0 24 24">
    <path d="M20 11V17C20 18.6569 18.6569 20 17 20H7C5.34315 20 4 18.6569 4 17V7C4 5.34315 5.34315 4 7 4H15" stroke="#fff" stroke-width="2" stroke-linecap="round"/>
    <path d="M8 12L12 16L20 4.5" stroke="#fff" stroke-width="2" stroke-linecap="round" stroke-linejoin="round"/>
  </symbol>

  <symbol id="person-icon" viewBox="0 0 16 16">
  <path d="M6 8a3 3 0 1 0 0-6 3 3 0 0 0 0 6zm2-3a2 2 0 1 1-4 0 2 2 0 0 1 4 0zm4 8c0 1-1 1-1 1H1s-1 0-1-1 1-4 6-4 6 3 6 4zm-1-.004c-.001-.246-.154-.986-.832-1.664C9.516 10.68 8.289 10 6 10c-2.29 0-3.516.68-4.168 1.332-.678.678-.83 1.418-.832 1.664h10z"/>
  <path fill-rule="evenodd" d="M13.5 5a.5.5 0 0 1 .5.5V7h1.5a.5.5 0 0 1 0 1H14v1.5a.5.5 0 0 1-1 0V8h-1.5a.5.5 0 0 1 0-1H13V5.5a.5.5 0 0 1 .5-.5z"/>
  </symbol>

  <symbol id="calendar-icon" viewBox="0 0 19 20">
    <path d="M11.7485 16C11.0485 16 10.4569 15.7583 9.97354 15.275C9.4902 14.7917 9.24854 14.2 9.24854 13.5C9.24854 12.8 9.4902 12.2083 9.97354 11.725C10.4569 11.2417 11.0485 11 11.7485 11C12.4485 11 13.0402 11.2417 13.5235 11.725C14.0069 12.2083 14.2485 12.8 14.2485 13.5C14.2485 14.2 14.0069 14.7917 13.5235 15.275C13.0402 15.7583 12.4485 16 11.7485 16ZM2.24854 20C1.69854 20 1.2277 19.8042 0.836035 19.4125C0.444369 19.0208 0.248535 18.55 0.248535 18V4C0.248535 3.45 0.444369 2.97917 0.836035 2.5875C1.2277 2.19583 1.69854 2 2.24854 2H3.24854V1C3.24854 0.716667 3.34437 0.479167 3.53604 0.2875C3.7277 0.0958333 3.9652 0 4.24854 0C4.53187 0 4.76937 0.0958333 4.96104 0.2875C5.1527 0.479167 5.24854 0.716667 5.24854 1V2H13.2485V1C13.2485 0.716667 13.3444 0.479167 13.536 0.2875C13.7277 0.0958333 13.9652 0 14.2485 0C14.5319 0 14.7694 0.0958333 14.961 0.2875C15.1527 0.479167 15.2485 0.716667 15.2485 1V2H16.2485C16.7985 2 17.2694 2.19583 17.661 2.5875C18.0527 2.97917 18.2485 3.45 18.2485 4V18C18.2485 18.55 18.0527 19.0208 17.661 19.4125C17.2694 19.8042 16.7985 20 16.2485 20H2.24854ZM2.24854 18H16.2485V8H2.24854V18ZM2.24854 6H16.2485V4H2.24854V6Z" fill="#2A3647"/>
  </symbol>

  <symbol id="resize-icon" viewBox="0 0 19 19">
    <path d="M18.9 0V1.69C18.9017 2.31796 18.7788 2.94002 18.5385 3.52019C18.2982 4.10036 17.9452 4.62712 17.5 5.07L5.07 17.5C4.62712 17.9452 4.10036 18.2982 3.52019 18.5385C2.94002 18.7788 2.31796 18.9017 1.69 18.9H0L18.9 0Z" fill="#D1D1D1"/>
    <path d="M18.9001 6.31006V8.00006C18.9006 8.62786 18.7772 9.2496 18.537 9.82961C18.2967 10.4096 17.9444 10.9365 17.5001 11.3801L11.3801 17.5001C10.9365 17.9444 10.4096 18.2967 9.82961 18.537C9.2496 18.7772 8.62786 18.9006 8.00006 18.9001H6.31006L18.9001 6.31006Z" fill="#D1D1D1"/>
    <path d="M18.8999 12.4302V14.1202C18.9005 14.748 18.7771 15.3697 18.5369 15.9497C18.2966 16.5297 17.9442 17.0566 17.4999 17.5002C17.0564 17.9445 16.5295 18.2969 15.9495 18.5371C15.3695 18.7773 14.7477 18.9007 14.1199 18.9002H12.4299L18.8999 12.4302Z" fill="#D1D1D1"/>
  </symbol>

  <symbol id="edit-icon" viewBox="0 0 24 24">
    <mask id="mask0_101767_3876" style="mask-type:alpha" maskUnits="userSpaceOnUse" x="0" y="0" width="24" height="24">
    <rect width="24" height="24" fill="#D9D9D9"/>
    </mask>
    <g mask="url(#mask0_101767_3876)">
    <path d="M5 19H6.4L15.025 10.375L13.625 8.975L5 17.6V19ZM19.3 8.925L15.05 4.725L16.45 3.325C16.8333 2.94167 17.3042 2.75 17.8625 2.75C18.4208 2.75 18.8917 2.94167 19.275 3.325L20.675 4.725C21.0583 5.10833 21.2583 5.57083 21.275 6.1125C21.2917 6.65417 21.1083 7.11667 20.725 7.5L19.3 8.925ZM17.85 10.4L7.25 21H3V16.75L13.6 6.15L17.85 10.4Z" fill="#2A3647"/>
    </g>
  </symbol>

  <symbol id="delete-icon" viewBox="0 0 16 18">
    <path d="M3 18C2.45 18 1.97917 17.8042 1.5875 17.4125C1.19583 17.0208 1 16.55 1 16V3C0.716667 3 0.479167 2.90417 0.2875 2.7125C0.0958333 2.52083 0 2.28333 0 2C0 1.71667 0.0958333 1.47917 0.2875 1.2875C0.479167 1.09583 0.716667 1 1 1H5C5 0.716667 5.09583 0.479167 5.2875 0.2875C5.47917 0.0958333 5.71667 0 6 0H10C10.2833 0 10.5208 0.0958333 10.7125 0.2875C10.9042 0.479167 11 0.716667 11 1H15C15.2833 1 15.5208 1.09583 15.7125 1.2875C15.9042 1.47917 16 1.71667 16 2C16 2.28333 15.9042 2.52083 15.7125 2.7125C15.5208 2.90417 15.2833 3 15 3V16C15 16.55 14.8042 17.0208 14.4125 17.4125C14.0208 17.8042 13.55 18 13 18H3ZM3 3V16H13V3H3ZM5 13C5 13.2833 5.09583 13.5208 5.2875 13.7125C5.47917 13.9042 5.71667 14 6 14C6.28333 14 6.52083 13.9042 6.7125 13.7125C6.90417 13.5208 7 13.2833 7 13V6C7 5.71667 6.90417 5.47917 6.7125 5.2875C6.52083 5.09583 6.28333 5 6 5C5.71667 5 5.47917 5.09583 5.2875 5.2875C5.09583 5.47917 5 5.71667 5 6V13ZM9 13C9 13.2833 9.09583 13.5208 9.2875 13.7125C9.47917 13.9042 9.71667 14 10 14C10.2833 14 10.5208 13.9042 10.7125 13.7125C10.9042 13.5208 11 13.2833 11 13V6C11 5.71667 10.9042 5.47917 10.7125 5.2875C10.5208 5.09583 10.2833 5 10 5C9.71667 5 9.47917 5.09583 9.2875 5.2875C9.09583 5.47917 9 5.71667 9 6V13Z" fill="#2A3647"/>
  </symbol>

  <symbol id="checkbox-checked" viewBox="0 0 24 24" fill="none">
    <path d="M20 11V17C20 18.6569 18.6569 20 17 20H7C5.34315 20 4 18.6569 4 17V7C4 5.34315 5.34315 4 7 4H15" stroke="#2A3647" stroke-width="2" stroke-linecap="round"/>
    <path d="M8 12L12 16L20 4.5" stroke="#2A3647" stroke-width="2" stroke-linecap="round" stroke-linejoin="round"/>
  </symbol>

  <symbol id="checkbox-unchecked" viewBox="0 0 24 24" fill="none">
    <rect x="4" y="4" width="16" height="16" rx="3" stroke="#2A3647" stroke-width="2"/>     
  </symbol>

  <symbol id="join-logo" viewBox="0 0 101 122" fill="none">
    <path d="M71.6721 0H49.5143V25.4923H71.6721V0Z" fill="#2A3647"/>
    <path d="M49.5142 46.2251H71.6721V82.1779C71.7733 90.8292 69.3112 99.3153 64.5986 106.557C59.9455 113.594 50.963 121.966 34.3446 121.966C16.2434 121.966 5.69286 113.406 0 108.715L13.9765 91.4743C19.533 96.0112 24.885 99.7435 34.4299 99.7435C41.6567 99.7435 44.5372 96.7988 46.2247 94.2307C48.5186 90.6637 49.7052 86.4923 49.6335 82.2464L49.5142 46.2251Z" fill="#2A3647"/>
    <path d="M38.2137 30.1318H16.0559V52.3884H38.2137V30.1318Z" fill="#29ABE2"/>
    <path d="M83.2793 111.522C83.2793 116.265 80.8761 118.815 77.5183 118.815C74.1605 118.815 71.9618 115.785 71.9618 111.762C71.9618 107.739 74.2287 104.554 77.7058 104.554C81.1829 104.554 83.2793 107.687 83.2793 111.522ZM74.5355 111.711C74.5355 114.57 75.6775 116.675 77.6376 116.675C79.5977 116.675 80.7056 114.45 80.7056 111.539C80.7056 108.988 79.6829 106.592 77.6376 106.592C75.5923 106.592 74.5355 108.903 74.5355 111.711Z" fill="#2A3647"/>
    <path d="M87.6768 104.76V118.593H85.2224V104.76H87.6768Z" fill="#2A3647"/>
    <path d="M90.3358 118.593V104.76H93.0629L95.9946 110.461C96.7493 111.952 97.4207 113.483 98.0058 115.049C97.8524 113.337 97.7843 111.368 97.7843 109.177V104.76H100.034V118.593H97.4945L94.5288 112.772C93.7436 111.243 93.0437 109.671 92.4323 108.064C92.4323 109.776 92.5516 111.711 92.5516 114.09V118.576L90.3358 118.593Z" fill="#2A3647"/>
  </symbol>

  <symbol id="mail-icon" viewBox="0 0 20 17">
    <path d="M2 16.5C1.45 16.5 0.979167 16.3042 0.5875 15.9125C0.195833 15.5208 0 15.05 0 14.5V2.5C0 1.95 0.195833 1.47917 0.5875 1.0875C0.979167 0.695833 1.45 0.5 2 0.5H18C18.55 0.5 19.0208 0.695833 19.4125 1.0875C19.8042 1.47917 20 1.95 20 2.5V14.5C20 15.05 19.8042 15.5208 19.4125 15.9125C19.0208 16.3042 18.55 16.5 18 16.5H2ZM18 4.5L10.525 9.175C10.4417 9.225 10.3542 9.2625 10.2625 9.2875C10.1708 9.3125 10.0833 9.325 10 9.325C9.91667 9.325 9.82917 9.3125 9.7375 9.2875C9.64583 9.2625 9.55833 9.225 9.475 9.175L2 4.5V14.5H18V4.5ZM10 7.5L18 2.5H2L10 7.5ZM2 4.75V3.275V3.3V3.2875V4.75Z" fill="#A8A8A8"/>
  </symbol>

  <symbol id="lock-icon" viewBox="0 0 16 22">
    <path d="M2 21.5C1.45 21.5 0.979167 21.3042 0.5875 20.9125C0.195833 20.5208 0 20.05 0 19.5V9.5C0 8.95 0.195833 8.47917 0.5875 8.0875C0.979167 7.69583 1.45 7.5 2 7.5H3V5.5C3 4.11667 3.4875 2.9375 4.4625 1.9625C5.4375 0.9875 6.61667 0.5 8 0.5C9.38333 0.5 10.5625 0.9875 11.5375 1.9625C12.5125 2.9375 13 4.11667 13 5.5V7.5H14C14.55 7.5 15.0208 7.69583 15.4125 8.0875C15.8042 8.47917 16 8.95 16 9.5V19.5C16 20.05 15.8042 20.5208 15.4125 20.9125C15.0208 21.3042 14.55 21.5 14 21.5H2ZM2 19.5H14V9.5H2V19.5ZM8 16.5C8.55 16.5 9.02083 16.3042 9.4125 15.9125C9.80417 15.5208 10 15.05 10 14.5C10 13.95 9.80417 13.4792 9.4125 13.0875C9.02083 12.6958 8.55 12.5 8 12.5C7.45 12.5 6.97917 12.6958 6.5875 13.0875C6.19583 13.4792 6 13.95 6 14.5C6 15.05 6.19583 15.5208 6.5875 15.9125C6.97917 16.3042 7.45 16.5 8 16.5ZM5 7.5H11V5.5C11 4.66667 10.7083 3.95833 10.125 3.375C9.54167 2.79167 8.83333 2.5 8 2.5C7.16667 2.5 6.45833 2.79167 5.875 3.375C5.29167 3.95833 5 4.66667 5 5.5V7.5Z" fill="#A8A8A8"/>
  </symbol>

  <symbol id="visibility-off-icon" fill="none" viewBox="0 0 22 19">
    <path d="M15.2443 10.1084L13.7943 8.65845C13.9443 7.87511 13.7193 7.14178 13.1193 6.45845C12.5193 5.77511 11.7443 5.50845 10.7943 5.65845L9.34434 4.20845C9.62767 4.07511 9.91517 3.97511 10.2068 3.90845C10.4985 3.84178 10.811 3.80845 11.1443 3.80845C12.3943 3.80845 13.4568 4.24595 14.3318 5.12095C15.2068 5.99595 15.6443 7.05845 15.6443 8.30845C15.6443 8.64178 15.611 8.95428 15.5443 9.24595C15.4777 9.53761 15.3777 9.82511 15.2443 10.1084ZM18.4443 13.2584L16.9943 11.8584C17.6277 11.3751 18.1902 10.8459 18.6818 10.2709C19.1735 9.69595 19.5943 9.04178 19.9443 8.30845C19.111 6.62511 17.9152 5.28761 16.3568 4.29595C14.7985 3.30428 13.061 2.80845 11.1443 2.80845C10.661 2.80845 10.186 2.84178 9.71934 2.90845C9.25267 2.97511 8.79434 3.07511 8.34434 3.20845L6.79434 1.65845C7.47767 1.37511 8.17767 1.16261 8.89434 1.02095C9.611 0.879281 10.361 0.808447 11.1443 0.808447C13.5277 0.808447 15.6693 1.43761 17.5693 2.69595C19.4693 3.95428 20.8943 5.59178 21.8443 7.60845C21.8943 7.69178 21.9277 7.79595 21.9443 7.92095C21.961 8.04595 21.9693 8.17511 21.9693 8.30845C21.9693 8.44178 21.9568 8.57095 21.9318 8.69595C21.9068 8.82095 21.8777 8.92511 21.8443 9.00845C21.461 9.85845 20.9818 10.6418 20.4068 11.3584C19.8318 12.0751 19.1777 12.7084 18.4443 13.2584ZM18.2443 18.7084L14.7443 15.2584C14.161 15.4418 13.5735 15.5793 12.9818 15.6709C12.3902 15.7626 11.7777 15.8084 11.1443 15.8084C8.761 15.8084 6.61934 15.1793 4.71934 13.9209C2.81934 12.6626 1.39434 11.0251 0.444336 9.00845C0.394336 8.92511 0.361003 8.82095 0.344336 8.69595C0.327669 8.57095 0.319336 8.44178 0.319336 8.30845C0.319336 8.17511 0.327669 8.05011 0.344336 7.93345C0.361003 7.81678 0.394336 7.71678 0.444336 7.63345C0.794336 6.88345 1.211 6.19178 1.69434 5.55845C2.17767 4.92511 2.711 4.34178 3.29434 3.80845L1.21934 1.70845C1.036 1.52511 0.944336 1.29595 0.944336 1.02095C0.944336 0.745947 1.04434 0.508447 1.24434 0.308447C1.42767 0.125114 1.661 0.0334473 1.94434 0.0334473C2.22767 0.0334473 2.461 0.125114 2.64434 0.308447L19.6443 17.3084C19.8277 17.4918 19.9235 17.7209 19.9318 17.9959C19.9402 18.2709 19.8443 18.5084 19.6443 18.7084C19.461 18.8918 19.2277 18.9834 18.9443 18.9834C18.661 18.9834 18.4277 18.8918 18.2443 18.7084ZM4.69434 5.20845C4.211 5.64178 3.76934 6.11678 3.36934 6.63345C2.96934 7.15011 2.62767 7.70845 2.34434 8.30845C3.17767 9.99178 4.3735 11.3293 5.93184 12.3209C7.49017 13.3126 9.22767 13.8084 11.1443 13.8084C11.4777 13.8084 11.8027 13.7876 12.1193 13.7459C12.436 13.7043 12.761 13.6584 13.0943 13.6084L12.1943 12.6584C12.011 12.7084 11.836 12.7459 11.6693 12.7709C11.5027 12.7959 11.3277 12.8084 11.1443 12.8084C9.89434 12.8084 8.83184 12.3709 7.95684 11.4959C7.08184 10.6209 6.64434 9.55845 6.64434 8.30845C6.64434 8.12511 6.65684 7.95011 6.68184 7.78345C6.70684 7.61678 6.74434 7.44178 6.79434 7.25845L4.69434 5.20845Z" fill="#A8A8A8"/>
  </symbol>

</svg>

